<svg width="70" height="70" viewBox="0 0 70 70" fill="none" xmlns="http://www.w3.org/2000/svg">
<circle cx="35" cy="35" r="35" fill="url(#paint0_linear_68_1755)"/>
<path d="M24.8889 48C24.0944 48 23.4141 47.7174 22.8479 47.1521C22.2826 46.5859 22 45.9056 22 45.1111V24.8889C22 24.0944 22.2826 23.4141 22.8479 22.8479C23.4141 22.2826 24.0944 22 24.8889 22H45.1111C45.9056 22 46.5859 22.2826 47.1521 22.8479C47.7174 23.4141 48 24.0944 48 24.8889V45.1111C48 45.9056 47.7174 46.5859 47.1521 47.1521C46.5859 47.7174 45.9056 48 45.1111 48H24.8889ZM24.8889 45.1111H45.1111V24.8889H24.8889V45.1111ZM29.2222 42.2222C29.6315 42.2222 29.9748 42.0836 30.2521 41.8062C30.5285 41.5299 30.6667 41.187 30.6667 40.7778V36.4444C30.6667 36.0352 30.5285 35.6919 30.2521 35.4146C29.9748 35.1382 29.6315 35 29.2222 35C28.813 35 28.4697 35.1382 28.1923 35.4146C27.916 35.6919 27.7778 36.0352 27.7778 36.4444V40.7778C27.7778 41.187 27.916 41.5299 28.1923 41.8062C28.4697 42.0836 28.813 42.2222 29.2222 42.2222ZM40.7778 42.2222C41.187 42.2222 41.5299 42.0836 41.8062 41.8062C42.0836 41.5299 42.2222 41.187 42.2222 40.7778V29.2222C42.2222 28.813 42.0836 28.4697 41.8062 28.1923C41.5299 27.916 41.187 27.7778 40.7778 27.7778C40.3685 27.7778 40.0257 27.916 39.7493 28.1923C39.472 28.4697 39.3333 28.813 39.3333 29.2222V40.7778C39.3333 41.187 39.472 41.5299 39.7493 41.8062C40.0257 42.0836 40.3685 42.2222 40.7778 42.2222ZM35 42.2222C35.4093 42.2222 35.7526 42.0836 36.0299 41.8062C36.3063 41.5299 36.4444 41.187 36.4444 40.7778V39.3333C36.4444 38.9241 36.3063 38.5808 36.0299 38.3034C35.7526 38.0271 35.4093 37.8889 35 37.8889C34.5907 37.8889 34.2479 38.0271 33.9716 38.3034C33.6942 38.5808 33.5556 38.9241 33.5556 39.3333V40.7778C33.5556 41.187 33.6942 41.5299 33.9716 41.8062C34.2479 42.0836 34.5907 42.2222 35 42.2222ZM35 35C35.4093 35 35.7526 34.8613 36.0299 34.584C36.3063 34.3076 36.4444 33.9648 36.4444 33.5556C36.4444 33.1463 36.3063 32.803 36.0299 32.5257C35.7526 32.2493 35.4093 32.1111 35 32.1111C34.5907 32.1111 34.2479 32.2493 33.9716 32.5257C33.6942 32.803 33.5556 33.1463 33.5556 33.5556C33.5556 33.9648 33.6942 34.3076 33.9716 34.584C34.2479 34.8613 34.5907 35 35 35ZM24.8889 45.1111V24.8889V45.1111Z" fill="white"/>
<defs>
<linearGradient id="paint0_linear_68_1755" x1="28.5031" y1="-2.06909" x2="46.4183" y2="65.231" gradientUnits="userSpaceOnUse">
<stop stop-color="#2532DE"/>
<stop offset="1" stop-color="#1CD8E9"/>
</linearGradient>
</defs>
</svg>
