<svg width="30" height="30" viewBox="0 0 30 30" fill="none" xmlns="http://www.w3.org/2000/svg">
<g clip-path="url(#clip0_68_2007)">
<path d="M28.2553 29.8994C29.1635 29.8994 29.9 29.1629 29.9 28.2547V1.74419C29.9 0.835659 29.1635 0.0994129 28.2553 0.0994129H1.74469C0.836149 0.0994129 0.100006 0.835659 0.100006 1.74419V28.2547C0.100006 29.1629 0.836149 29.8994 1.74469 29.8994H28.2553Z" fill="#6BABBE"/>
<path d="M19.1228 29.8994V18.3594H22.9965L23.5764 13.8619H19.1228V10.9905C19.1228 9.6884 19.4844 8.80109 21.3517 8.80109L23.7333 8.79997V4.77751C23.3213 4.7228 21.9076 4.60031 20.2629 4.60031C16.8292 4.60031 14.4785 6.69618 14.4785 10.5452V13.8619H10.595V18.3594H14.4785V29.8994H19.1228Z" fill="white"/>
</g>
<defs>
<clipPath id="clip0_68_2007">
<rect width="30" height="30" fill="white"/>
</clipPath>
</defs>
</svg>
