<svg width="30" height="30" viewBox="0 0 30 30" fill="none" xmlns="http://www.w3.org/2000/svg">
<g clip-path="url(#clip0_68_2003)">
<path d="M15.0073 29.7725C8.83882 29.7725 7.03478 29.7661 6.68411 29.737C5.41824 29.6318 4.63054 29.4325 3.77238 29.0052C3.11104 28.6768 2.58946 28.2961 2.0747 27.7625C1.13723 26.7893 0.569068 25.592 0.363392 24.1688C0.263395 23.4779 0.234305 23.337 0.228397 19.8079C0.226124 18.6316 0.228397 17.0834 0.228397 15.0068C0.228397 8.84314 0.235215 7.04087 0.264759 6.69087C0.367029 5.45905 0.560205 4.68405 0.969283 3.83632C1.75108 2.2136 3.24421 0.995417 5.00325 0.540871C5.61232 0.384052 6.28503 0.297689 7.14864 0.256779C7.51454 0.24087 11.244 0.229507 14.9757 0.229507C18.7074 0.229507 22.4391 0.234051 22.7959 0.252234C23.7959 0.299278 24.3765 0.377235 25.0186 0.543146C26.789 0.999964 28.2548 2.19996 29.0525 3.84542C29.4536 4.67269 29.6571 5.47723 29.7491 6.64473C29.7691 6.89928 29.7775 10.9577 29.7775 15.0106C29.7775 19.0643 29.7684 23.1152 29.7484 23.3697C29.6552 24.5561 29.4518 25.3538 29.0378 26.197C28.698 26.8872 28.3207 27.4027 27.773 27.9297C26.7955 28.8634 25.6001 29.4316 24.1756 29.637C23.4854 29.7368 23.3479 29.7663 19.8162 29.7725H15.0073Z" fill="url(#paint0_radial_68_2003)"/>
<path d="M15.0073 29.7725C8.83882 29.7725 7.03478 29.7661 6.68411 29.737C5.41824 29.6318 4.63054 29.4325 3.77238 29.0052C3.11104 28.6768 2.58946 28.2961 2.0747 27.7625C1.13723 26.7893 0.569068 25.592 0.363392 24.1688C0.263395 23.4779 0.234305 23.337 0.228397 19.8079C0.226124 18.6316 0.228397 17.0834 0.228397 15.0068C0.228397 8.84314 0.235215 7.04087 0.264759 6.69087C0.367029 5.45905 0.560205 4.68405 0.969283 3.83632C1.75108 2.2136 3.24421 0.995417 5.00325 0.540871C5.61232 0.384052 6.28503 0.297689 7.14864 0.256779C7.51454 0.24087 11.244 0.229507 14.9757 0.229507C18.7074 0.229507 22.4391 0.234051 22.7959 0.252234C23.7959 0.299278 24.3765 0.377235 25.0186 0.543146C26.789 0.999964 28.2548 2.19996 29.0525 3.84542C29.4536 4.67269 29.6571 5.47723 29.7491 6.64473C29.7691 6.89928 29.7775 10.9577 29.7775 15.0106C29.7775 19.0643 29.7684 23.1152 29.7484 23.3697C29.6552 24.5561 29.4518 25.3538 29.0378 26.197C28.698 26.8872 28.3207 27.4027 27.773 27.9297C26.7955 28.8634 25.6001 29.4316 24.1756 29.637C23.4854 29.7368 23.3479 29.7663 19.8162 29.7725H15.0073Z" fill="#6BABBE"/>
<path d="M15.0005 25.9092C12.0378 25.9092 11.666 25.8962 10.5024 25.8433C9.34109 25.7901 8.54838 25.6062 7.85477 25.3365C7.13729 25.0578 6.52867 24.6851 5.92233 24.0785C5.31553 23.4721 4.94281 22.8635 4.66327 22.1462C4.39283 21.4524 4.20874 20.6594 4.15647 19.4985C4.10443 18.3349 4.09079 17.9628 4.09079 15.0001C4.09079 12.0374 4.10397 11.6667 4.1567 10.503C4.2101 9.34168 4.39396 8.54895 4.6635 7.85532C4.94235 7.13782 5.31507 6.52918 5.92164 5.92282C6.52776 5.316 7.13638 4.94236 7.8534 4.66372C8.54747 4.39395 9.3404 4.21009 10.5015 4.15691C11.6651 4.10395 12.0367 4.091 14.9991 4.091C17.962 4.091 18.3326 4.10395 19.4962 4.15691C20.6576 4.21009 21.4512 4.39395 22.1452 4.66372C22.8625 4.94236 23.4702 5.316 24.0763 5.92282C24.6831 6.52918 25.0558 7.13782 25.3354 7.85509C25.6035 8.54895 25.7876 9.34191 25.8422 10.5028C25.8944 11.6665 25.9081 12.0374 25.9081 15.0001C25.9081 17.9628 25.8944 18.3346 25.8422 19.4983C25.7876 20.6596 25.6035 21.4524 25.3354 22.146C25.0558 22.8635 24.6831 23.4721 24.0763 24.0785C23.4695 24.6853 22.8627 25.058 22.1446 25.3365C21.4491 25.6062 20.656 25.7901 19.4946 25.8433C18.331 25.8962 17.9606 25.9092 14.997 25.9092H15.0005ZM14.0219 23.9433C14.3123 23.9437 14.6364 23.9433 15.0005 23.9433C17.9131 23.9433 18.2583 23.9328 19.4085 23.8805C20.4721 23.8319 21.0494 23.6542 21.4339 23.5049C21.943 23.3071 22.3059 23.0708 22.6875 22.689C23.0693 22.3071 23.3057 21.9435 23.5038 21.4344C23.6532 21.0503 23.8311 20.473 23.8795 19.4094C23.9318 18.2594 23.9431 17.914 23.9431 15.0026C23.9431 12.0912 23.9318 11.7458 23.8795 10.5958C23.8309 9.53214 23.6532 8.95486 23.5038 8.57077C23.3061 8.06168 23.0693 7.69918 22.6875 7.31759C22.3057 6.93577 21.9432 6.69941 21.4339 6.50168C21.0498 6.35168 20.4721 6.17441 19.4085 6.12577C18.2585 6.0735 17.9131 6.06213 15.0005 6.06213C12.0876 6.06213 11.7424 6.0735 10.5924 6.12577C9.52881 6.17486 8.95155 6.35259 8.56679 6.50191C8.05771 6.69963 7.69409 6.936 7.31228 7.31782C6.93048 7.69963 6.69412 8.06236 6.49594 8.57168C6.34663 8.95577 6.16868 9.53304 6.12027 10.5967C6.068 11.7467 6.05755 12.0921 6.05755 15.0053C6.05755 17.9185 6.068 18.2621 6.12027 19.4121C6.16891 20.4758 6.34663 21.053 6.49594 21.4376C6.69367 21.9467 6.93048 22.3103 7.31228 22.6921C7.69409 23.074 8.05771 23.3103 8.56679 23.5085C8.95132 23.6585 9.52881 23.8358 10.5924 23.8846C11.5987 23.9301 11.9887 23.9437 14.0219 23.946V23.9433ZM20.8235 22.1319C20.1008 22.1319 19.5144 21.5462 19.5144 20.8233C19.5144 20.1005 20.1008 19.5142 20.8235 19.5142C21.5462 19.5142 22.1325 20.1005 22.1325 20.8233C22.1325 21.546 21.5462 22.1324 20.8235 22.1324V22.1319ZM15.0005 20.6024C11.9067 20.6024 9.39836 18.094 9.39836 15.0001C9.39836 11.9062 11.9067 9.39895 15.0005 9.39895C18.0942 9.39895 20.6017 11.9062 20.6017 15.0001C20.6017 18.094 18.094 20.6024 15.0002 20.6024H15.0005ZM15.0005 18.6365C17.0086 18.6365 18.6367 17.0085 18.6367 15.0001C18.6367 12.9919 17.0086 11.3637 15.0005 11.3637C12.9921 11.3637 11.3642 12.9919 11.3642 15.0001C11.3642 17.0085 12.9921 18.6365 15.0005 18.6365Z" fill="white"/>
</g>
<defs>
<radialGradient id="paint0_radial_68_2003" cx="0" cy="0" r="1" gradientUnits="userSpaceOnUse" gradientTransform="translate(8.07667 -2.04592) rotate(90) scale(29.2792 27.2386)">
<stop stop-color="#FFDD55"/>
<stop offset="0.1" stop-color="#FFDD55"/>
<stop offset="0.5" stop-color="#FF543E"/>
<stop offset="1" stop-color="#C837AB"/>
</radialGradient>
<clipPath id="clip0_68_2003">
<rect width="30" height="30" fill="white" transform="matrix(1 0 0 -1 0 30)"/>
</clipPath>
</defs>
</svg>
