<svg width="30" height="30" viewBox="0 0 30 30" fill="none" xmlns="http://www.w3.org/2000/svg">
<g clip-path="url(#clip0_68_2015)">
<path fill-rule="evenodd" clip-rule="evenodd" d="M3.33333 30H26.6667C28.5076 30 30 28.5076 30 26.6667V3.33333C30 1.49238 28.5076 0 26.6667 0H3.33333C1.49238 0 0 1.49238 0 3.33333V26.6667C0 28.5076 1.49238 30 3.33333 30Z" fill="#6BABBE"/>
<path fill-rule="evenodd" clip-rule="evenodd" d="M25.8333 25.8337H21.3815V18.2512C21.3815 16.1723 20.5916 15.0105 18.9461 15.0105C17.1561 15.0105 16.2209 16.2195 16.2209 18.2512V25.8337H11.9306V11.3892H16.2209V13.3349C16.2209 13.3349 17.5109 10.9479 20.5761 10.9479C23.6399 10.9479 25.8333 12.8189 25.8333 16.6883V25.8337ZM6.81223 9.49783C5.35086 9.49783 4.16667 8.30435 4.16667 6.83241C4.16667 5.36047 5.35086 4.16699 6.81223 4.16699C8.2736 4.16699 9.45709 5.36047 9.45709 6.83241C9.45709 8.30435 8.2736 9.49783 6.81223 9.49783ZM4.5969 25.8337H9.07059V11.3892H4.5969V25.8337Z" fill="white"/>
</g>
<defs>
<clipPath id="clip0_68_2015">
<rect width="30" height="30" fill="white"/>
</clipPath>
</defs>
</svg>
