<svg width="72" height="72" viewBox="0 0 72 72" fill="none" xmlns="http://www.w3.org/2000/svg">
<circle cx="36" cy="36" r="36" fill="url(#paint0_linear_68_1860)"/>
<path d="M25.2222 49C24.3361 49 23.5773 48.7065 22.9457 48.1195C22.3152 47.5315 22 46.825 22 46V25C22 24.175 22.3152 23.4685 22.9457 22.8805C23.5773 22.2935 24.3361 22 25.2222 22H47.7778C48.6639 22 49.4227 22.2935 50.0543 22.8805C50.6848 23.4685 51 24.175 51 25V46C51 46.825 50.6848 47.5315 50.0543 48.1195C49.4227 48.7065 48.6639 49 47.7778 49H25.2222ZM25.2222 46H47.7778V25H25.2222V46ZM30.0556 43C30.512 43 30.8949 42.856 31.2043 42.568C31.5125 42.281 31.6667 41.925 31.6667 41.5V37C31.6667 36.575 31.5125 36.2185 31.2043 35.9305C30.8949 35.6435 30.512 35.5 30.0556 35.5C29.5991 35.5 29.2162 35.6435 28.9068 35.9305C28.5986 36.2185 28.4444 36.575 28.4444 37V41.5C28.4444 41.925 28.5986 42.281 28.9068 42.568C29.2162 42.856 29.5991 43 30.0556 43ZM42.9444 43C43.4009 43 43.7833 42.856 44.0916 42.568C44.4009 42.281 44.5556 41.925 44.5556 41.5V29.5C44.5556 29.075 44.4009 28.7185 44.0916 28.4305C43.7833 28.1435 43.4009 28 42.9444 28C42.488 28 42.1056 28.1435 41.7973 28.4305C41.488 28.7185 41.3333 29.075 41.3333 29.5V41.5C41.3333 41.925 41.488 42.281 41.7973 42.568C42.1056 42.856 42.488 43 42.9444 43ZM36.5 43C36.9565 43 37.3394 42.856 37.6487 42.568C37.957 42.281 38.1111 41.925 38.1111 41.5V40C38.1111 39.575 37.957 39.2185 37.6487 38.9305C37.3394 38.6435 36.9565 38.5 36.5 38.5C36.0435 38.5 35.6611 38.6435 35.3529 38.9305C35.0436 39.2185 34.8889 39.575 34.8889 40V41.5C34.8889 41.925 35.0436 42.281 35.3529 42.568C35.6611 42.856 36.0435 43 36.5 43ZM36.5 35.5C36.9565 35.5 37.3394 35.356 37.6487 35.068C37.957 34.781 38.1111 34.425 38.1111 34C38.1111 33.575 37.957 33.2185 37.6487 32.9305C37.3394 32.6435 36.9565 32.5 36.5 32.5C36.0435 32.5 35.6611 32.6435 35.3529 32.9305C35.0436 33.2185 34.8889 33.575 34.8889 34C34.8889 34.425 35.0436 34.781 35.3529 35.068C35.6611 35.356 36.0435 35.5 36.5 35.5ZM25.2222 46V25V46Z" fill="white"/>
<defs>
<linearGradient id="paint0_linear_68_1860" x1="29.3175" y1="-2.1282" x2="47.7445" y2="67.0948" gradientUnits="userSpaceOnUse">
<stop stop-color="#2532DE"/>
<stop offset="1" stop-color="#1CD8E9"/>
</linearGradient>
</defs>
</svg>
