<svg width="31" height="31" viewBox="0 0 31 31" fill="none" xmlns="http://www.w3.org/2000/svg">
<g clip-path="url(#clip0_68_2019)">
<path fill-rule="evenodd" clip-rule="evenodd" d="M6.35742 0H24.6426C26.3272 0.00466022 27.9416 0.675955 29.1328 1.86719C30.324 3.05843 30.9953 4.67276 31 6.35742V24.6426C30.9953 26.3272 30.324 27.9416 29.1328 29.1328C27.9416 30.324 26.3272 30.9953 24.6426 31H6.35742C4.67276 30.9953 3.05843 30.324 1.86719 29.1328C0.675955 27.9416 0.00466022 26.3272 0 24.6426L0 6.35742C0.00466022 4.67276 0.675955 3.05843 1.86719 1.86719C3.05843 0.675955 4.67276 0.00466022 6.35742 0Z" fill="#6BABBE"/>
<path fill-rule="evenodd" clip-rule="evenodd" d="M24.6022 9.85416C23.9196 10.1577 23.1949 10.3559 22.4528 10.442C23.2305 9.97267 23.8134 9.23931 24.0951 8.37581C23.3619 8.81034 22.5599 9.11662 21.7237 9.28149C21.211 8.73619 20.5464 8.35744 19.8159 8.19431C19.0855 8.03119 18.3228 8.09121 17.6269 8.3666C16.9309 8.64199 16.3337 9.12005 15.9127 9.73884C15.4916 10.3576 15.2661 11.0886 15.2654 11.8371C15.2639 12.1232 15.296 12.4086 15.3612 12.6872C13.8776 12.6121 12.4263 12.2259 11.1015 11.5535C9.77682 10.8811 8.60829 9.93773 7.67179 8.7845C7.34153 9.35491 7.16749 10.0023 7.16724 10.6615C7.16651 11.2761 7.31795 11.8814 7.60804 12.4232C7.89813 12.9651 8.31785 13.4268 8.82975 13.767C8.23669 13.7485 7.6565 13.5894 7.13696 13.3028V13.3507C7.13667 14.2124 7.43445 15.0477 7.97979 15.7149C8.52513 16.3821 9.28446 16.8401 10.129 17.0113C9.80836 17.0988 9.47745 17.1429 9.1451 17.1425C8.90818 17.1411 8.67183 17.1192 8.43872 17.0769C8.67706 17.8198 9.14137 18.4697 9.76684 18.9359C10.3923 19.4022 11.1478 19.6616 11.9277 19.6779C10.3591 20.9012 8.37027 21.4544 6.39526 21.2168C8.10355 22.3141 10.0916 22.8966 12.122 22.8944C18.9915 22.8944 22.7505 17.203 22.7505 12.2685C22.7505 12.1045 22.7505 11.9456 22.7505 11.7866C23.4816 11.26 24.1122 10.6063 24.6123 9.85668L24.6022 9.85416Z" fill="white"/>
</g>
<defs>
<clipPath id="clip0_68_2019">
<rect width="31" height="31" fill="white"/>
</clipPath>
</defs>
</svg>
