<svg width="70" height="70" viewBox="0 0 70 70" fill="none" xmlns="http://www.w3.org/2000/svg">
<circle cx="35" cy="35" r="35" fill="url(#paint0_linear_31_1256)"/>
<path d="M26.6667 22C25.9594 22 25.2811 22.281 24.781 22.781C24.281 23.2811 24 23.9594 24 24.6667V44.6667C24 46.1467 25.1867 47.3333 26.6667 47.3333V48.6667H29.3333V47.3333H40V48.6667H42.6667V47.3333C44.1467 47.3333 45.3333 46.1467 45.3333 44.6667V24.6667C45.3333 23.9594 45.0524 23.2811 44.5523 22.781C44.0522 22.281 43.3739 22 42.6667 22H26.6667ZM26.6667 24.6667H33.3333V44.6667H26.6667V24.6667ZM36 24.6667H42.6667V44.6667H36V24.6667ZM29.3333 32.6667V36.6667H32V32.6667H29.3333ZM37.3333 32.6667V36.6667H40V32.6667H37.3333Z" fill="white"/>
<defs>
<linearGradient id="paint0_linear_31_1256" x1="28.5031" y1="-2.06909" x2="46.4183" y2="65.231" gradientUnits="userSpaceOnUse">
<stop stop-color="#2532DE"/>
<stop offset="1" stop-color="#1CD8E9"/>
</linearGradient>
</defs>
</svg>
