<svg width="30" height="30" viewBox="0 0 30 30" fill="none" xmlns="http://www.w3.org/2000/svg">
<path d="M15 0C6.71333 0 0 6.71333 0 15C0 23.2867 6.71333 30 15 30C23.2867 30 30 23.2867 30 15C30 6.71333 23.2867 0 15 0ZM12.9333 6.92667C13.6067 6.75333 14.3 6.66667 14.9933 6.66667C17.08 6.66667 19.0733 7.44667 20.62 8.85333L20.82 9.03333L20.6467 9.23333C19.8333 10.1667 18.3933 11.4467 16.1467 12.2667L15.9267 12.3467L15.8133 12.14C14.88 10.46 13.86 8.84667 12.7867 7.34L12.5533 7.01333L12.9333 6.92667ZM6.85333 13.2533C7.4 10.7 9.15333 8.52 11.54 7.42667L11.7467 7.33333L11.88 7.51333C12.9733 9.02 14.0067 10.6333 14.9533 12.3067L15.1267 12.6133L14.7867 12.7067C12.2667 13.4 9.98 13.58 8.50667 13.6067C8.36667 13.6067 8.22667 13.6133 8.08667 13.6133C7.76 13.6133 7.42667 13.6067 7.10667 13.5933L6.78 13.58L6.85333 13.2533ZM9.26 20.5533L9.06667 20.86L8.82667 20.5933C7.43333 19.0533 6.66667 17.0667 6.66667 15C6.66667 14.8933 6.66667 14.7867 6.67333 14.6667L6.68667 14.3933L6.96 14.4067C7.32667 14.42 7.7 14.4333 8.07333 14.4333H8.48C10.0867 14.4067 12.5733 14.2133 15.3 13.42L15.52 13.36L15.62 13.56C15.8467 14.0067 16.0733 14.4667 16.2733 14.9333L16.4 15.22L16.1 15.3133C15.64 15.4533 15.1733 15.6267 14.7067 15.8133C12.6067 16.6867 10.7733 18.2467 9.40667 20.32C9.36667 20.3867 9.31333 20.4733 9.26 20.5533ZM18.3733 22.62C17.3067 23.0933 16.1733 23.3333 15 23.3333C13.1333 23.3333 11.36 22.7267 9.88667 21.5733L9.69333 21.4267L9.82 21.22C9.92667 21.0467 10.0267 20.8867 10.1333 20.7267C11.4267 18.78 13.0733 17.38 15.0333 16.56C15.5133 16.36 16 16.1867 16.48 16.04L16.72 15.9667L16.8133 16.2C17.42 17.74 17.9 19.3267 18.2533 20.9267C18.3533 21.3933 18.4467 21.86 18.5267 22.32L18.56 22.5333L18.3733 22.62ZM23.22 16.36C22.8533 18.5867 21.56 20.6 19.6867 21.8867L19.34 22.1267L19.26 21.7133C19.2 21.4067 19.14 21.0933 19.0733 20.7867C18.7267 19.2 18.2467 17.62 17.6533 16.08L17.5333 15.7667L17.86 15.7067C19.34 15.44 20.7933 15.4733 22.1667 15.8C22.46 15.8733 22.7533 15.9533 23.0333 16.0533L23.2533 16.1267L23.22 16.36ZM22.9733 15.1733C22.7933 15.12 22.6133 15.0667 22.4333 15.0267C21.36 14.76 20.24 14.6667 19.0867 14.74C18.5467 14.7733 17.9867 14.8467 17.4267 14.96L17.2133 15.0067L17.1267 14.8067C16.9133 14.32 16.6867 13.84 16.4533 13.3733L16.32 13.1L16.6067 12.9933C18.8667 12.1333 20.34 10.84 21.1733 9.9L21.3933 9.65333L21.5933 9.91333C22.7133 11.36 23.3133 13.0867 23.3333 14.9133L23.34 15.2867L22.9733 15.1733Z" fill="#084C61"/>
</svg>
