<svg width="30" height="30" viewBox="0 0 30 30" fill="none" xmlns="http://www.w3.org/2000/svg">
<path d="M15.0074 29.7727C8.83897 29.7727 7.03493 29.7663 6.68426 29.7373C5.41839 29.632 4.63069 29.4327 3.77253 29.0054C3.11119 28.677 2.58961 28.2963 2.07486 27.7627C1.13739 26.7895 0.569221 25.5923 0.363545 24.1691C0.263548 23.4782 0.234458 23.3373 0.228549 19.8082C0.226276 18.6318 0.228549 17.0836 0.228549 15.007C0.228549 8.84339 0.235367 7.04112 0.264912 6.69112C0.367181 5.4593 0.560357 4.6843 0.969436 3.83657C1.75123 2.21384 3.24437 0.99566 5.0034 0.541114C5.61248 0.384296 6.28518 0.297933 7.14879 0.257024C7.51469 0.241114 11.2441 0.229752 14.9758 0.229752C18.7075 0.229752 22.4392 0.234295 22.796 0.252477C23.796 0.299523 24.3767 0.37748 25.0187 0.543389C26.7891 1.00021 28.255 2.20021 29.0527 3.84566C29.4538 4.67293 29.6572 5.47748 29.7492 6.64498C29.7692 6.89952 29.7777 10.9579 29.7777 15.0109C29.7777 19.0645 29.7686 23.1154 29.7486 23.37C29.6554 24.5563 29.452 25.3541 29.0379 26.1973C28.6981 26.8875 28.3209 27.4029 27.7732 27.93C26.7957 28.8636 25.6003 29.4318 24.1758 29.6373C23.4856 29.737 23.3481 29.7666 19.8164 29.7727H15.0074Z" fill="#6BABBE"/>
<path d="M15.0005 25.9092C12.0379 25.9092 11.666 25.8962 10.5024 25.8433C9.34112 25.7901 8.54841 25.6062 7.8548 25.3365C7.13732 25.0578 6.5287 24.6851 5.92236 24.0785C5.31556 23.4721 4.94284 22.8635 4.6633 22.1462C4.39286 21.4524 4.20877 20.6594 4.1565 19.4985C4.10446 18.3349 4.09082 17.9628 4.09082 15.0001C4.09082 12.0374 4.104 11.6667 4.15673 10.503C4.21014 9.34168 4.39399 8.54895 4.66353 7.85532C4.94239 7.13782 5.3151 6.52918 5.92167 5.92282C6.52779 5.316 7.13641 4.94236 7.85343 4.66372C8.5475 4.39395 9.34043 4.21009 10.5015 4.15691C11.6651 4.10395 12.0367 4.091 14.9991 4.091C17.962 4.091 18.3327 4.10395 19.4963 4.15691C20.6576 4.21009 21.4512 4.39395 22.1453 4.66372C22.8625 4.94236 23.4702 5.316 24.0764 5.92282C24.6832 6.52918 25.0559 7.13782 25.3354 7.85509C25.6036 8.54895 25.7877 9.34191 25.8422 10.5028C25.8945 11.6665 25.9081 12.0374 25.9081 15.0001C25.9081 17.9628 25.8945 18.3346 25.8422 19.4983C25.7877 20.6596 25.6036 21.4524 25.3354 22.146C25.0559 22.8635 24.6832 23.4721 24.0764 24.0785C23.4696 24.6853 22.8628 25.058 22.1446 25.3365C21.4492 25.6062 20.656 25.7901 19.4947 25.8433C18.3311 25.8962 17.9606 25.9092 14.9971 25.9092H15.0005ZM14.0219 23.9433C14.3123 23.9437 14.6364 23.9433 15.0005 23.9433C17.9131 23.9433 18.2583 23.9328 19.4085 23.8805C20.4721 23.8319 21.0494 23.6542 21.4339 23.5049C21.943 23.3071 22.306 23.0708 22.6875 22.689C23.0693 22.3071 23.3057 21.9435 23.5039 21.4344C23.6532 21.0503 23.8311 20.473 23.8795 19.4094C23.9318 18.2594 23.9432 17.914 23.9432 15.0026C23.9432 12.0912 23.9318 11.7458 23.8795 10.5958C23.8309 9.53214 23.6532 8.95486 23.5039 8.57077C23.3061 8.06168 23.0693 7.69918 22.6875 7.31759C22.3057 6.93577 21.9432 6.69941 21.4339 6.50168C21.0499 6.35168 20.4721 6.17441 19.4085 6.12577C18.2586 6.0735 17.9131 6.06213 15.0005 6.06213C12.0876 6.06213 11.7424 6.0735 10.5924 6.12577C9.52884 6.17486 8.95158 6.35259 8.56682 6.50191C8.05775 6.69963 7.69412 6.936 7.31231 7.31782C6.93051 7.69963 6.69415 8.06236 6.49597 8.57168C6.34666 8.95577 6.16871 9.53304 6.1203 10.5967C6.06803 11.7467 6.05758 12.0921 6.05758 15.0053C6.05758 17.9185 6.06803 18.2621 6.1203 19.4121C6.16894 20.4758 6.34666 21.053 6.49597 21.4376C6.6937 21.9467 6.93051 22.3103 7.31231 22.6921C7.69412 23.074 8.05775 23.3103 8.56682 23.5085C8.95135 23.6585 9.52884 23.8358 10.5924 23.8846C11.5988 23.9301 11.9888 23.9437 14.0219 23.946V23.9433ZM20.8235 22.1319C20.1008 22.1319 19.5144 21.5462 19.5144 20.8233C19.5144 20.1005 20.1008 19.5142 20.8235 19.5142C21.5462 19.5142 22.1325 20.1005 22.1325 20.8233C22.1325 21.546 21.5462 22.1324 20.8235 22.1324V22.1319ZM15.0005 20.6024C11.9067 20.6024 9.39839 18.094 9.39839 15.0001C9.39839 11.9062 11.9067 9.39895 15.0005 9.39895C18.0943 9.39895 20.6017 11.9062 20.6017 15.0001C20.6017 18.094 18.094 20.6024 15.0003 20.6024H15.0005ZM15.0005 18.6365C17.0086 18.6365 18.6367 17.0085 18.6367 15.0001C18.6367 12.9919 17.0086 11.3637 15.0005 11.3637C12.9921 11.3637 11.3642 12.9919 11.3642 15.0001C11.3642 17.0085 12.9921 18.6365 15.0005 18.6365Z" fill="white"/>
</svg>
