<svg width="30" height="30" viewBox="0 0 30 30" fill="none" xmlns="http://www.w3.org/2000/svg">
<path d="M15 0C6.71333 0 0 6.71333 0 15C0 23.2867 6.71333 30 15 30C23.2867 30 30 23.2867 30 15C30 6.71333 23.2867 0 15 0ZM10.7533 23.3333H6.76667V12.1867H10.7533V23.3333ZM8.76 10.6533C7.66 10.6533 6.76667 9.76 6.76667 8.66C6.76667 7.56 7.66 6.66667 8.76 6.66667C9.86 6.66667 10.7533 7.56 10.7533 8.66C10.7533 9.76 9.86 10.6533 8.76 10.6533ZM23.24 23.3333H19.9533C19.9533 23.3333 19.9733 16.8333 19.9867 16.6333C20.0067 16.4333 19.8067 14.7933 18.1267 14.7933C16.4467 14.7933 15.92 15.9933 15.92 16.9067V23.3333H12.8067V12.1867H15.8867V13.7333C15.8867 13.7333 16.36 12.1733 19.2067 12.1733C21.5533 12.1733 23.2333 13.0867 23.2333 15.6C23.24 16.9933 23.24 23.3333 23.24 23.3333Z" fill="#084C61"/>
</svg>
