<svg width="70" height="70" viewBox="0 0 70 70" fill="none" xmlns="http://www.w3.org/2000/svg">
<circle cx="35" cy="35" r="35" fill="url(#paint0_linear_68_1748)"/>
<path d="M35.3333 39C35.7111 39 36.028 38.872 36.284 38.616C36.5391 38.3609 36.6667 38.0444 36.6667 37.6667V35H39.3333C39.7111 35 40.028 34.872 40.284 34.616C40.5391 34.3609 40.6667 34.0444 40.6667 33.6667C40.6667 33.2889 40.5391 32.972 40.284 32.716C40.028 32.4609 39.7111 32.3333 39.3333 32.3333H36.6667V29.6667C36.6667 29.2889 36.5391 28.972 36.284 28.716C36.028 28.4609 35.7111 28.3333 35.3333 28.3333C34.9556 28.3333 34.6391 28.4609 34.384 28.716C34.128 28.972 34 29.2889 34 29.6667V32.3333H31.3333C30.9556 32.3333 30.6391 32.4609 30.384 32.716C30.128 32.972 30 33.2889 30 33.6667C30 34.0444 30.128 34.3609 30.384 34.616C30.6391 34.872 30.9556 35 31.3333 35H34V37.6667C34 38.0444 34.128 38.3609 34.384 38.616C34.6391 38.872 34.9556 39 35.3333 39ZM22 46.4333V25.6667C22 24.9333 22.2613 24.3053 22.784 23.7827C23.3058 23.2609 23.9333 23 24.6667 23H46C46.7333 23 47.3613 23.2609 47.884 23.7827C48.4058 24.3053 48.6667 24.9333 48.6667 25.6667V41.6667C48.6667 42.4 48.4058 43.028 47.884 43.5507C47.3613 44.0724 46.7333 44.3333 46 44.3333H27.3333L24.2667 47.4C23.8444 47.8222 23.3609 47.9164 22.816 47.6827C22.272 47.4498 22 47.0333 22 46.4333ZM24.6667 43.2333L26.2333 41.6667H46V25.6667H24.6667V43.2333ZM24.6667 25.6667V43.2333V25.6667Z" fill="white"/>
<defs>
<linearGradient id="paint0_linear_68_1748" x1="28.5031" y1="-2.06909" x2="46.4183" y2="65.231" gradientUnits="userSpaceOnUse">
<stop stop-color="#2532DE"/>
<stop offset="1" stop-color="#1CD8E9"/>
</linearGradient>
</defs>
</svg>
