<svg width="30" height="30" viewBox="0 0 30 30" fill="none" xmlns="http://www.w3.org/2000/svg">
<path d="M15 0C6.71333 0 0 6.71333 0 15C0 23.2867 6.71333 30 15 30C23.2867 30 30 23.2867 30 15C30 6.71333 23.2867 0 15 0ZM21.6867 11.54C21.6867 11.54 22.1733 15.98 18.6667 19.3067C13.7533 23.9667 6.66667 20.34 6.66667 20.34C10.0733 20.38 11.5133 18.9467 11.5133 18.9467C8.71333 18.4667 8.43333 16.4667 8.43333 16.4667C8.91333 16.7667 9.96 16.4667 9.96 16.4667C6.84 15.0333 7.32667 13.1467 7.32667 13.1467C8.23333 13.6533 8.91333 13.4667 8.91333 13.4667C6.48667 11.36 7.86 9.12667 7.86 9.12667C12.12 13.18 14.86 12.3467 14.86 12.3467C14.6667 9.49333 16.3533 8.38667 18.1733 8.32667C19.7067 8.27333 20.5867 9.34 20.5867 9.34C21.7667 9.44 22.8733 8.65333 22.8733 8.65333C22.7733 9.60667 21.48 10.4133 21.48 10.4133C22.1533 10.4733 23.3267 10.1067 23.3267 10.1067C22.72 11.22 21.6867 11.54 21.6867 11.54Z" fill="#084C61"/>
</svg>
